<svg width="65" height="56" viewBox="0 0 65 56" fill="none" xmlns="http://www.w3.org/2000/svg">
<path d="M14.4 18.6001H10.4V20.6001H14.4C14.4 20.2001 14.2919 20.0001 14.2919 19.6001C14.2919 19.4001 14.2919 19.0001 14.4 18.6001Z" fill="#BEBAB3"/>
<path d="M50.6 18.6001C50.6 19.0001 50.7081 19.2001 50.7081 19.6001C50.7081 20.0001 50.7081 20.2001 50.6 20.6001H54.6V18.6001H50.6Z" fill="#BEBAB3"/>
<path d="M21.5854 18.5C21.5854 18.7 21.5854 18.9 21.5854 19.3C21.5854 19.5 21.5854 19.7 21.5854 19.9C21.5854 20.1 21.5854 20.1 21.5854 20.3H21.6707H22.2676H22.8645H42.1358H42.7327H43.3296H43.5001C43.5001 20.1 43.5001 20.1 43.5001 19.9C43.5001 19.7 43.5001 19.5 43.5001 19.3C43.5001 19.1 43.5001 18.9 43.5001 18.5V18.3H42.9885H22.0118H21.5001C21.5854 18.3 21.5854 18.3 21.5854 18.5Z" fill="#BEBAB3"/>
<path d="M52.2999 12.1001C52.2999 11.5601 51.9399 11.2001 51.3999 11.2001H48.6999V8.5001C48.6999 7.9601 48.3399 7.6001 47.7999 7.6001H44.1999C43.6599 7.6001 43.2999 7.9601 43.2999 8.5001V18.4001V20.2001V30.1001C43.2999 30.6401 43.6599 31.0001 44.1999 31.0001H47.7999C48.3399 31.0001 48.6999 30.6401 48.6999 30.1001V27.4001H51.3999C51.9399 27.4001 52.2999 27.0401 52.2999 26.5001V20.2001V18.4001V12.1001ZM50.4999 18.4001V20.2001V25.6001H48.6999V20.2001V18.4001V13.0001H50.4999V18.4001ZM46.8999 26.5001V29.2001H45.0999V20.2001V18.4001V9.4001H46.8999V12.1001V18.4001V20.2001V26.5001Z" fill="#BEBAB3"/>
<path d="M22.2999 8.5001C22.2999 7.9601 21.9399 7.6001 21.3999 7.6001H17.7999C17.2599 7.6001 16.8999 7.9601 16.8999 8.5001V11.2001H14.1999C13.6599 11.2001 13.2999 11.5601 13.2999 12.1001V18.4001V20.2001V26.5001C13.2999 27.0401 13.6599 27.4001 14.1999 27.4001H16.8999V30.1001C16.8999 30.6401 17.2599 31.0001 17.7999 31.0001H21.3999C21.9399 31.0001 22.2999 30.6401 22.2999 30.1001V20.2001V18.4001V8.5001ZM20.4999 18.4001V20.2001V29.2001H18.6999V26.5001V20.2001V18.4001V12.1001V9.4001H20.4999V18.4001ZM15.0999 20.2001V18.4001V13.0001H16.8999V18.4001V20.2001V25.6001H15.0999V20.2001Z" fill="#BEBAB3"/>
<path d="M2.48285 53C2.40818 53 2.34285 52.972 2.28685 52.916C2.23085 52.86 2.20285 52.7947 2.20285 52.72C2.20285 52.6733 2.20752 52.622 2.21685 52.566L5.68885 43.508C5.72619 43.4147 5.77752 43.34 5.84285 43.284C5.90818 43.228 6.00619 43.2 6.13685 43.2H7.08885C7.21019 43.2 7.30352 43.228 7.36885 43.284C7.44352 43.34 7.49952 43.4147 7.53685 43.508L10.9949 52.566C11.0135 52.622 11.0229 52.6733 11.0229 52.72C11.0229 52.7947 10.9949 52.86 10.9389 52.916C10.8829 52.972 10.8175 53 10.7429 53H10.0289C9.91685 53 9.83285 52.972 9.77685 52.916C9.73019 52.86 9.69752 52.8087 9.67885 52.762L8.90885 50.774H4.31685L3.54685 52.762C3.53752 52.8087 3.50485 52.86 3.44885 52.916C3.39285 52.972 3.30885 53 3.19685 53H2.48285ZM4.72285 49.57H8.50285L6.61285 44.6L4.72285 49.57ZM15.1957 53.14C14.5331 53.14 13.9591 53.014 13.4737 52.762C12.9977 52.5007 12.6291 52.132 12.3677 51.656C12.1064 51.1707 11.9664 50.592 11.9477 49.92C11.9384 49.78 11.9337 49.5933 11.9337 49.36C11.9337 49.1267 11.9384 48.94 11.9477 48.8C11.9664 48.128 12.1064 47.554 12.3677 47.078C12.6291 46.5927 12.9977 46.224 13.4737 45.972C13.9591 45.7107 14.5331 45.58 15.1957 45.58C15.7371 45.58 16.1991 45.6547 16.5817 45.804C16.9737 45.9533 17.2957 46.1447 17.5477 46.378C17.7997 46.6113 17.9864 46.8633 18.1077 47.134C18.2384 47.4047 18.3084 47.6613 18.3177 47.904C18.3271 47.9973 18.2991 48.072 18.2337 48.128C18.1684 48.184 18.0891 48.212 17.9957 48.212H17.3237C17.2304 48.212 17.1604 48.1933 17.1137 48.156C17.0671 48.1093 17.0204 48.0347 16.9737 47.932C16.8057 47.4747 16.5771 47.1527 16.2877 46.966C15.9984 46.7793 15.6391 46.686 15.2097 46.686C14.6497 46.686 14.1924 46.8587 13.8377 47.204C13.4924 47.5493 13.3057 48.1047 13.2777 48.87C13.2684 49.206 13.2684 49.5327 13.2777 49.85C13.3057 50.6247 13.4924 51.1847 13.8377 51.53C14.1924 51.866 14.6497 52.034 15.2097 52.034C15.6391 52.034 15.9984 51.9407 16.2877 51.754C16.5771 51.5673 16.8057 51.2453 16.9737 50.788C17.0204 50.6853 17.0671 50.6153 17.1137 50.578C17.1604 50.5313 17.2304 50.508 17.3237 50.508H17.9957C18.0891 50.508 18.1684 50.536 18.2337 50.592C18.2991 50.648 18.3271 50.7227 18.3177 50.816C18.3084 51.012 18.2664 51.2127 18.1917 51.418C18.1171 51.6233 17.9957 51.8333 17.8277 52.048C17.6691 52.2533 17.4684 52.44 17.2257 52.608C16.9831 52.7667 16.6891 52.8973 16.3437 53C16.0077 53.0933 15.6251 53.14 15.1957 53.14ZM22.0103 53.14C21.5437 53.14 21.119 53.0467 20.7363 52.86C20.3537 52.6733 20.0457 52.4213 19.8123 52.104C19.579 51.7867 19.4623 51.4273 19.4623 51.026C19.4623 50.382 19.7237 49.8687 20.2463 49.486C20.769 49.1033 21.4503 48.8513 22.2903 48.73L24.3763 48.436V48.03C24.3763 47.582 24.2457 47.232 23.9843 46.98C23.7323 46.728 23.317 46.602 22.7383 46.602C22.3183 46.602 21.9777 46.686 21.7163 46.854C21.4643 47.022 21.287 47.2367 21.1843 47.498C21.1283 47.638 21.0303 47.708 20.8903 47.708H20.2603C20.1577 47.708 20.0783 47.68 20.0223 47.624C19.9757 47.5587 19.9523 47.484 19.9523 47.4C19.9523 47.26 20.0037 47.0873 20.1063 46.882C20.2183 46.6767 20.3863 46.476 20.6103 46.28C20.8343 46.084 21.119 45.9207 21.4643 45.79C21.819 45.65 22.2483 45.58 22.7523 45.58C23.3123 45.58 23.7837 45.6547 24.1663 45.804C24.549 45.944 24.8477 46.1353 25.0623 46.378C25.2863 46.6207 25.445 46.896 25.5383 47.204C25.641 47.512 25.6923 47.8247 25.6923 48.142V52.678C25.6923 52.7713 25.6597 52.8507 25.5943 52.916C25.5383 52.972 25.4637 53 25.3703 53H24.7263C24.6237 53 24.5443 52.972 24.4883 52.916C24.4323 52.8507 24.4043 52.7713 24.4043 52.678V52.076C24.283 52.244 24.1197 52.412 23.9143 52.58C23.709 52.7387 23.4523 52.874 23.1443 52.986C22.8363 53.0887 22.4583 53.14 22.0103 53.14ZM22.3043 52.09C22.687 52.09 23.037 52.0107 23.3543 51.852C23.6717 51.684 23.919 51.4273 24.0963 51.082C24.283 50.7367 24.3763 50.3027 24.3763 49.78V49.388L22.7523 49.626C22.0897 49.7193 21.5903 49.878 21.2543 50.102C20.9183 50.3167 20.7503 50.592 20.7503 50.928C20.7503 51.1893 20.825 51.4087 20.9743 51.586C21.133 51.754 21.329 51.88 21.5623 51.964C21.805 52.048 22.0523 52.09 22.3043 52.09ZM30.3649 53.14C29.8516 53.14 29.4083 53.0513 29.0349 52.874C28.6616 52.6873 28.3536 52.44 28.1109 52.132C27.8776 51.8147 27.7003 51.4553 27.5789 51.054C27.4669 50.6527 27.4016 50.228 27.3829 49.78C27.3736 49.6307 27.3689 49.4907 27.3689 49.36C27.3689 49.2293 27.3736 49.0893 27.3829 48.94C27.4016 48.5013 27.4669 48.0813 27.5789 47.68C27.7003 47.2787 27.8776 46.9193 28.1109 46.602C28.3536 46.2847 28.6616 46.0373 29.0349 45.86C29.4083 45.6733 29.8516 45.58 30.3649 45.58C30.9156 45.58 31.3729 45.678 31.7369 45.874C32.1009 46.07 32.3996 46.3127 32.6329 46.602V43.382C32.6329 43.2887 32.6609 43.214 32.7169 43.158C32.7823 43.0927 32.8616 43.06 32.9549 43.06H33.6269C33.7203 43.06 33.7949 43.0927 33.8509 43.158C33.9163 43.214 33.9489 43.2887 33.9489 43.382V52.678C33.9489 52.7713 33.9163 52.8507 33.8509 52.916C33.7949 52.972 33.7203 53 33.6269 53H32.9969C32.8943 53 32.8149 52.972 32.7589 52.916C32.7029 52.8507 32.6749 52.7713 32.6749 52.678V52.09C32.4416 52.3887 32.1383 52.6407 31.7649 52.846C31.3916 53.042 30.9249 53.14 30.3649 53.14ZM30.6589 52.006C31.1256 52.006 31.4989 51.8987 31.7789 51.684C32.0589 51.4693 32.2689 51.1987 32.4089 50.872C32.5489 50.536 32.6236 50.1953 32.6329 49.85C32.6423 49.7007 32.6469 49.5233 32.6469 49.318C32.6469 49.1033 32.6423 48.9213 32.6329 48.772C32.6236 48.4453 32.5443 48.1233 32.3949 47.806C32.2549 47.4887 32.0403 47.2273 31.7509 47.022C31.4709 46.8167 31.1069 46.714 30.6589 46.714C30.1829 46.714 29.8049 46.8213 29.5249 47.036C29.2449 47.2413 29.0443 47.5167 28.9229 47.862C28.8016 48.198 28.7316 48.562 28.7129 48.954C28.7036 49.2247 28.7036 49.4953 28.7129 49.766C28.7316 50.158 28.8016 50.5267 28.9229 50.872C29.0443 51.208 29.2449 51.4833 29.5249 51.698C29.8049 51.9033 30.1829 52.006 30.6589 52.006ZM39.9668 53C39.8641 53 39.7848 52.972 39.7288 52.916C39.6728 52.8507 39.6448 52.7713 39.6448 52.678V43.536C39.6448 43.4333 39.6728 43.354 39.7288 43.298C39.7848 43.2327 39.8641 43.2 39.9668 43.2H43.3828C44.4374 43.2 45.2728 43.4473 45.8888 43.942C46.5048 44.4367 46.8128 45.1693 46.8128 46.14C46.8128 46.8587 46.6308 47.4467 46.2668 47.904C45.9121 48.352 45.4268 48.6647 44.8108 48.842L46.9668 52.566C46.9948 52.622 47.0088 52.6733 47.0088 52.72C47.0088 52.7947 46.9761 52.86 46.9108 52.916C46.8548 52.972 46.7894 53 46.7148 53H46.0428C45.8841 53 45.7674 52.958 45.6928 52.874C45.6181 52.79 45.5528 52.706 45.4968 52.622L43.4668 49.066H41.0168V52.678C41.0168 52.7713 40.9841 52.8507 40.9188 52.916C40.8628 52.972 40.7834 53 40.6808 53H39.9668ZM41.0168 47.876H43.3268C44.0268 47.876 44.5494 47.7313 44.8948 47.442C45.2401 47.1433 45.4128 46.7047 45.4128 46.126C45.4128 45.5567 45.2401 45.1227 44.8948 44.824C44.5588 44.5253 44.0361 44.376 43.3268 44.376H41.0168V47.876ZM51.4526 53.14C50.4912 53.14 49.7259 52.846 49.1566 52.258C48.5872 51.6607 48.2746 50.8487 48.2186 49.822C48.2092 49.7007 48.2046 49.5467 48.2046 49.36C48.2046 49.164 48.2092 49.0053 48.2186 48.884C48.2559 48.2213 48.4099 47.6427 48.6806 47.148C48.9512 46.644 49.3199 46.2567 49.7866 45.986C50.2626 45.7153 50.8179 45.58 51.4526 45.58C52.1619 45.58 52.7546 45.7293 53.2306 46.028C53.7159 46.3267 54.0846 46.7513 54.3366 47.302C54.5886 47.8527 54.7146 48.4967 54.7146 49.234V49.472C54.7146 49.5747 54.6819 49.654 54.6166 49.71C54.5606 49.766 54.4859 49.794 54.3926 49.794H49.5486C49.5486 49.8033 49.5486 49.822 49.5486 49.85C49.5486 49.878 49.5486 49.9013 49.5486 49.92C49.5672 50.3027 49.6512 50.662 49.8006 50.998C49.9499 51.3247 50.1646 51.5907 50.4446 51.796C50.7246 52.0013 51.0606 52.104 51.4526 52.104C51.7886 52.104 52.0686 52.0527 52.2926 51.95C52.5166 51.8473 52.6986 51.7353 52.8386 51.614C52.9786 51.4833 53.0719 51.3853 53.1186 51.32C53.2026 51.1987 53.2679 51.1287 53.3146 51.11C53.3612 51.082 53.4359 51.068 53.5386 51.068H54.2106C54.3039 51.068 54.3786 51.096 54.4346 51.152C54.4999 51.1987 54.5279 51.2687 54.5186 51.362C54.5092 51.502 54.4346 51.6747 54.2946 51.88C54.1546 52.076 53.9539 52.272 53.6926 52.468C53.4312 52.664 53.1139 52.8273 52.7406 52.958C52.3672 53.0793 51.9379 53.14 51.4526 53.14ZM49.5486 48.828H53.3846V48.786C53.3846 48.366 53.3052 47.9927 53.1466 47.666C52.9972 47.3393 52.7779 47.0827 52.4886 46.896C52.1992 46.7 51.8539 46.602 51.4526 46.602C51.0512 46.602 50.7059 46.7 50.4166 46.896C50.1366 47.0827 49.9219 47.3393 49.7726 47.666C49.6232 47.9927 49.5486 48.366 49.5486 48.786V48.828ZM59.3285 53.14C58.6659 53.14 58.0919 53.014 57.6065 52.762C57.1305 52.5007 56.7619 52.132 56.5005 51.656C56.2392 51.1707 56.0992 50.592 56.0805 49.92C56.0712 49.78 56.0665 49.5933 56.0665 49.36C56.0665 49.1267 56.0712 48.94 56.0805 48.8C56.0992 48.128 56.2392 47.554 56.5005 47.078C56.7619 46.5927 57.1305 46.224 57.6065 45.972C58.0919 45.7107 58.6659 45.58 59.3285 45.58C59.8699 45.58 60.3319 45.6547 60.7145 45.804C61.1065 45.9533 61.4285 46.1447 61.6805 46.378C61.9325 46.6113 62.1192 46.8633 62.2405 47.134C62.3712 47.4047 62.4412 47.6613 62.4505 47.904C62.4599 47.9973 62.4319 48.072 62.3665 48.128C62.3012 48.184 62.2219 48.212 62.1285 48.212H61.4565C61.3632 48.212 61.2932 48.1933 61.2465 48.156C61.1999 48.1093 61.1532 48.0347 61.1065 47.932C60.9385 47.4747 60.7099 47.1527 60.4205 46.966C60.1312 46.7793 59.7719 46.686 59.3425 46.686C58.7825 46.686 58.3252 46.8587 57.9705 47.204C57.6252 47.5493 57.4385 48.1047 57.4105 48.87C57.4012 49.206 57.4012 49.5327 57.4105 49.85C57.4385 50.6247 57.6252 51.1847 57.9705 51.53C58.3252 51.866 58.7825 52.034 59.3425 52.034C59.7719 52.034 60.1312 51.9407 60.4205 51.754C60.7099 51.5673 60.9385 51.2453 61.1065 50.788C61.1532 50.6853 61.1999 50.6153 61.2465 50.578C61.2932 50.5313 61.3632 50.508 61.4565 50.508H62.1285C62.2219 50.508 62.3012 50.536 62.3665 50.592C62.4319 50.648 62.4599 50.7227 62.4505 50.816C62.4412 51.012 62.3992 51.2127 62.3245 51.418C62.2499 51.6233 62.1285 51.8333 61.9605 52.048C61.8019 52.2533 61.6012 52.44 61.3585 52.608C61.1159 52.7667 60.8219 52.8973 60.4765 53C60.1405 53.0933 59.7579 53.14 59.3285 53.14Z" fill="#BEBAB3"/>
</svg>
