<svg width="65" height="53" viewBox="0 0 65 53" fill="none" xmlns="http://www.w3.org/2000/svg">
<path d="M22.5 14.9333C22.5 13.0477 22.5 12.1049 23.0858 11.5191C23.6716 10.9333 24.6144 10.9333 26.5 10.9333H38.5C40.3856 10.9333 41.3284 10.9333 41.9142 11.5191C42.5 12.1049 42.5 13.0477 42.5 14.9333V16.4889H22.5V14.9333Z" stroke="#BEBAB3" stroke-width="1.2"/>
<rect x="22.5" y="10.9333" width="20" height="16.6667" rx="2" stroke="#BEBAB3" stroke-width="1.2"/>
<path d="M26.9444 7.6001L26.9444 13.1557" stroke="#BEBAB3" stroke-width="1.2" stroke-linecap="round"/>
<path d="M38.0556 7.6001L38.0556 13.1557" stroke="#BEBAB3" stroke-width="1.2" stroke-linecap="round"/>
<path d="M7.7148 49.6001C7.61214 49.6001 7.5328 49.5721 7.4768 49.5161C7.4208 49.4508 7.3928 49.3714 7.3928 49.2781V40.1361C7.3928 40.0334 7.4208 39.9541 7.4768 39.8981C7.5328 39.8328 7.61214 39.8001 7.7148 39.8001H13.4968C13.5995 39.8001 13.6788 39.8328 13.7348 39.8981C13.7908 39.9541 13.8188 40.0334 13.8188 40.1361V40.6681C13.8188 40.7708 13.7908 40.8501 13.7348 40.9061C13.6788 40.9621 13.5995 40.9901 13.4968 40.9901H8.7368V44.0561H13.1888C13.2915 44.0561 13.3708 44.0888 13.4268 44.1541C13.4828 44.2101 13.5108 44.2894 13.5108 44.3921V44.9101C13.5108 45.0034 13.4828 45.0828 13.4268 45.1481C13.3708 45.2041 13.2915 45.2321 13.1888 45.2321H8.7368V48.4101H13.6088C13.7115 48.4101 13.7908 48.4381 13.8468 48.4941C13.9028 48.5501 13.9308 48.6294 13.9308 48.7321V49.2781C13.9308 49.3714 13.9028 49.4508 13.8468 49.5161C13.7908 49.5721 13.7115 49.6001 13.6088 49.6001H7.7148ZM18.03 49.6001C17.89 49.6001 17.778 49.5674 17.694 49.5021C17.6193 49.4368 17.5586 49.3528 17.512 49.2501L14.922 42.7541C14.9033 42.7074 14.894 42.6608 14.894 42.6141C14.894 42.5301 14.922 42.4601 14.978 42.4041C15.034 42.3481 15.104 42.3201 15.188 42.3201H15.86C15.9626 42.3201 16.042 42.3481 16.098 42.4041C16.154 42.4601 16.1866 42.5114 16.196 42.5581L18.338 48.0741L20.466 42.5581C20.4846 42.5114 20.5173 42.4601 20.564 42.4041C20.62 42.3481 20.6993 42.3201 20.802 42.3201H21.488C21.5626 42.3201 21.628 42.3481 21.684 42.4041C21.7493 42.4601 21.782 42.5301 21.782 42.6141C21.782 42.6608 21.7726 42.7074 21.754 42.7541L19.15 49.2501C19.1126 49.3528 19.052 49.4368 18.968 49.5021C18.8933 49.5674 18.7813 49.6001 18.632 49.6001H18.03ZM25.8861 49.7401C24.9248 49.7401 24.1595 49.4461 23.5901 48.8581C23.0208 48.2608 22.7081 47.4488 22.6521 46.4221C22.6428 46.3008 22.6381 46.1468 22.6381 45.9601C22.6381 45.7641 22.6428 45.6054 22.6521 45.4841C22.6895 44.8214 22.8435 44.2428 23.1141 43.7481C23.3848 43.2441 23.7535 42.8568 24.2201 42.5861C24.6961 42.3154 25.2515 42.1801 25.8861 42.1801C26.5955 42.1801 27.1881 42.3294 27.6641 42.6281C28.1495 42.9268 28.5181 43.3514 28.7701 43.9021C29.0221 44.4528 29.1481 45.0968 29.1481 45.8341V46.0721C29.1481 46.1748 29.1155 46.2541 29.0501 46.3101C28.9941 46.3661 28.9195 46.3941 28.8261 46.3941H23.9821C23.9821 46.4034 23.9821 46.4221 23.9821 46.4501C23.9821 46.4781 23.9821 46.5014 23.9821 46.5201C24.0008 46.9028 24.0848 47.2621 24.2341 47.5981C24.3835 47.9248 24.5981 48.1908 24.8781 48.3961C25.1581 48.6014 25.4941 48.7041 25.8861 48.7041C26.2221 48.7041 26.5021 48.6528 26.7261 48.5501C26.9501 48.4474 27.1321 48.3354 27.2721 48.2141C27.4121 48.0834 27.5055 47.9854 27.5521 47.9201C27.6361 47.7988 27.7015 47.7288 27.7481 47.7101C27.7948 47.6821 27.8695 47.6681 27.9721 47.6681H28.6441C28.7375 47.6681 28.8121 47.6961 28.8681 47.7521C28.9335 47.7988 28.9615 47.8688 28.9521 47.9621C28.9428 48.1021 28.8681 48.2748 28.7281 48.4801C28.5881 48.6761 28.3875 48.8721 28.1261 49.0681C27.8648 49.2641 27.5475 49.4274 27.1741 49.5581C26.8008 49.6794 26.3715 49.7401 25.8861 49.7401ZM23.9821 45.4281H27.8181V45.3861C27.8181 44.9661 27.7388 44.5928 27.5801 44.2661C27.4308 43.9394 27.2115 43.6828 26.9221 43.4961C26.6328 43.3001 26.2875 43.2021 25.8861 43.2021C25.4848 43.2021 25.1395 43.3001 24.8501 43.4961C24.5701 43.6828 24.3555 43.9394 24.2061 44.2661C24.0568 44.5928 23.9821 44.9661 23.9821 45.3861V45.4281ZM31.1441 49.6001C31.0508 49.6001 30.9715 49.5721 30.9061 49.5161C30.8501 49.4508 30.8221 49.3714 30.8221 49.2781V42.6421C30.8221 42.5488 30.8501 42.4741 30.9061 42.4181C30.9715 42.3528 31.0508 42.3201 31.1441 42.3201H31.8021C31.8955 42.3201 31.9701 42.3528 32.0261 42.4181C32.0915 42.4741 32.1241 42.5488 32.1241 42.6421V43.2581C32.3668 42.9408 32.6701 42.6841 33.0341 42.4881C33.4075 42.2828 33.8835 42.1801 34.4621 42.1801C35.0688 42.1801 35.5821 42.3154 36.0021 42.5861C36.4315 42.8474 36.7535 43.2161 36.9681 43.6921C37.1828 44.1588 37.2901 44.7048 37.2901 45.3301V49.2781C37.2901 49.3714 37.2621 49.4508 37.2061 49.5161C37.1501 49.5721 37.0755 49.6001 36.9821 49.6001H36.2821C36.1888 49.6001 36.1095 49.5721 36.0441 49.5161C35.9881 49.4508 35.9601 49.3714 35.9601 49.2781V45.4001C35.9601 44.7468 35.8015 44.2381 35.4841 43.8741C35.1668 43.5008 34.7001 43.3141 34.0841 43.3141C33.5055 43.3141 33.0388 43.5008 32.6841 43.8741C32.3388 44.2381 32.1661 44.7468 32.1661 45.4001V49.2781C32.1661 49.3714 32.1335 49.4508 32.0681 49.5161C32.0121 49.5721 31.9375 49.6001 31.8441 49.6001H31.1441ZM42.0587 49.6001C41.536 49.6001 41.1113 49.5021 40.7847 49.3061C40.458 49.1008 40.22 48.8161 40.0707 48.4521C39.9213 48.0788 39.8467 47.6401 39.8467 47.1361V43.4401H38.7547C38.6613 43.4401 38.582 43.4121 38.5167 43.3561C38.4607 43.2908 38.4327 43.2114 38.4327 43.1181V42.6421C38.4327 42.5488 38.4607 42.4741 38.5167 42.4181C38.582 42.3528 38.6613 42.3201 38.7547 42.3201H39.8467V39.9821C39.8467 39.8888 39.8747 39.8141 39.9307 39.7581C39.996 39.6928 40.0753 39.6601 40.1687 39.6601H40.8267C40.92 39.6601 40.9947 39.6928 41.0507 39.7581C41.116 39.8141 41.1487 39.8888 41.1487 39.9821V42.3201H42.8847C42.978 42.3201 43.0527 42.3528 43.1087 42.4181C43.174 42.4741 43.2067 42.5488 43.2067 42.6421V43.1181C43.2067 43.2114 43.174 43.2908 43.1087 43.3561C43.0527 43.4121 42.978 43.4401 42.8847 43.4401H41.1487V47.0381C41.1487 47.4768 41.2233 47.8221 41.3727 48.0741C41.522 48.3261 41.788 48.4521 42.1707 48.4521H43.0247C43.118 48.4521 43.1927 48.4848 43.2487 48.5501C43.314 48.6061 43.3467 48.6808 43.3467 48.7741V49.2781C43.3467 49.3714 43.314 49.4508 43.2487 49.5161C43.1927 49.5721 43.118 49.6001 43.0247 49.6001H42.0587ZM47.6674 49.7401C46.9581 49.7401 46.3654 49.6048 45.8894 49.3341C45.4134 49.0634 45.0494 48.6901 44.7974 48.2141C44.5454 47.7288 44.4054 47.1781 44.3774 46.5621C44.3681 46.4034 44.3634 46.2028 44.3634 45.9601C44.3634 45.7081 44.3681 45.5074 44.3774 45.3581C44.4054 44.7328 44.5454 44.1821 44.7974 43.7061C45.0587 43.2301 45.4274 42.8568 45.9034 42.5861C46.3794 42.3154 46.9674 42.1801 47.6674 42.1801C48.3674 42.1801 48.9554 42.3154 49.4314 42.5861C49.9074 42.8568 50.2714 43.2301 50.5234 43.7061C50.7847 44.1821 50.9294 44.7328 50.9574 45.3581C50.9667 45.5074 50.9714 45.7081 50.9714 45.9601C50.9714 46.2028 50.9667 46.4034 50.9574 46.5621C50.9294 47.1781 50.7894 47.7288 50.5374 48.2141C50.2854 48.6901 49.9214 49.0634 49.4454 49.3341C48.9694 49.6048 48.3767 49.7401 47.6674 49.7401ZM47.6674 48.6621C48.2461 48.6621 48.7081 48.4801 49.0534 48.1161C49.3987 47.7428 49.5854 47.2014 49.6134 46.4921C49.6227 46.3521 49.6274 46.1748 49.6274 45.9601C49.6274 45.7454 49.6227 45.5681 49.6134 45.4281C49.5854 44.7188 49.3987 44.1821 49.0534 43.8181C48.7081 43.4448 48.2461 43.2581 47.6674 43.2581C47.0887 43.2581 46.6221 43.4448 46.2674 43.8181C45.9221 44.1821 45.7401 44.7188 45.7214 45.4281C45.7121 45.5681 45.7074 45.7454 45.7074 45.9601C45.7074 46.1748 45.7121 46.3521 45.7214 46.4921C45.7401 47.2014 45.9221 47.7428 46.2674 48.1161C46.6221 48.4801 47.0887 48.6621 47.6674 48.6621ZM55.2445 49.7401C54.7218 49.7401 54.2738 49.6748 53.9005 49.5441C53.5271 49.4134 53.2238 49.2548 52.9905 49.0681C52.7571 48.8814 52.5798 48.6948 52.4585 48.5081C52.3465 48.3214 52.2858 48.1721 52.2765 48.0601C52.2671 47.9574 52.2998 47.8781 52.3745 47.8221C52.4491 47.7661 52.5238 47.7381 52.5985 47.7381H53.2145C53.2705 47.7381 53.3125 47.7474 53.3405 47.7661C53.3778 47.7754 53.4245 47.8128 53.4805 47.8781C53.6018 48.0088 53.7371 48.1394 53.8865 48.2701C54.0358 48.4008 54.2178 48.5081 54.4325 48.5921C54.6565 48.6761 54.9318 48.7181 55.2585 48.7181C55.7345 48.7181 56.1265 48.6294 56.4345 48.4521C56.7425 48.2654 56.8965 47.9948 56.8965 47.6401C56.8965 47.4068 56.8311 47.2201 56.7005 47.0801C56.5791 46.9401 56.3551 46.8141 56.0285 46.7021C55.7111 46.5901 55.2725 46.4734 54.7125 46.3521C54.1525 46.2214 53.7091 46.0628 53.3825 45.8761C53.0558 45.6801 52.8225 45.4514 52.6825 45.1901C52.5425 44.9194 52.4725 44.6161 52.4725 44.2801C52.4725 43.9348 52.5751 43.6034 52.7805 43.2861C52.9858 42.9594 53.2845 42.6934 53.6765 42.4881C54.0778 42.2828 54.5771 42.1801 55.1745 42.1801C55.6598 42.1801 56.0751 42.2408 56.4205 42.3621C56.7658 42.4834 57.0505 42.6374 57.2745 42.8241C57.4985 43.0014 57.6665 43.1788 57.7785 43.3561C57.8905 43.5334 57.9511 43.6828 57.9605 43.8041C57.9698 43.8974 57.9418 43.9768 57.8765 44.0421C57.8111 44.0981 57.7365 44.1261 57.6525 44.1261H57.0645C56.9991 44.1261 56.9431 44.1121 56.8965 44.0841C56.8591 44.0561 56.8218 44.0234 56.7845 43.9861C56.6911 43.8648 56.5791 43.7434 56.4485 43.6221C56.3271 43.5008 56.1638 43.4028 55.9585 43.3281C55.7625 43.2441 55.5011 43.2021 55.1745 43.2021C54.7078 43.2021 54.3578 43.3001 54.1245 43.4961C53.8911 43.6921 53.7745 43.9394 53.7745 44.2381C53.7745 44.4154 53.8258 44.5741 53.9285 44.7141C54.0311 44.8541 54.2271 44.9801 54.5165 45.0921C54.8058 45.2041 55.2351 45.3254 55.8045 45.4561C56.4205 45.5774 56.9058 45.7408 57.2605 45.9461C57.6151 46.1514 57.8671 46.3894 58.0165 46.6601C58.1658 46.9308 58.2405 47.2434 58.2405 47.5981C58.2405 47.9901 58.1238 48.3494 57.8905 48.6761C57.6665 49.0028 57.3305 49.2641 56.8825 49.4601C56.4438 49.6468 55.8978 49.7401 55.2445 49.7401Z" fill="#BEBAB3"/>
</svg>
