<svg width="65" height="55" viewBox="0 0 65 55" fill="none" xmlns="http://www.w3.org/2000/svg">
<path fill-rule="evenodd" clip-rule="evenodd" d="M23.8529 14.9365C23.5 15.7038 23.5 16.5766 23.5 18.3223V23.7742C23.5 26.1986 23.5 27.4108 24.2532 28.1639C24.9684 28.8792 26.0977 28.9152 28.286 28.917V22.4886C28.286 21.2262 29.3093 20.2029 30.5717 20.2029H34.4288C35.6912 20.2029 36.7146 21.2262 36.7146 22.4886V28.917C38.9025 28.9152 40.0316 28.8791 40.7468 28.1639C41.5 27.4108 41.5 26.1986 41.5 23.7742V18.3223C41.5 16.5766 41.5 15.7038 41.1471 14.9365C40.7942 14.1693 40.1315 13.6013 38.8061 12.4652L37.5204 11.3631C35.1247 9.30968 33.9268 8.28296 32.5 8.28296C31.0732 8.28296 29.8753 9.30968 27.4796 11.3631L26.1939 12.4652C24.8685 13.6013 24.2058 14.1693 23.8529 14.9365ZM34.7146 28.9171V22.4886C34.7146 22.3308 34.5866 22.2029 34.4288 22.2029H30.5717C30.4139 22.2029 30.286 22.3308 30.286 22.4886V28.9171H34.7146Z" fill="#12AA9E"/>
<path d="M14.8925 51.917C14.7899 51.917 14.7105 51.889 14.6545 51.833C14.5985 51.7677 14.5705 51.6883 14.5705 51.595V42.453C14.5705 42.3503 14.5985 42.271 14.6545 42.215C14.7105 42.1497 14.7899 42.117 14.8925 42.117H15.6065C15.7092 42.117 15.7885 42.1497 15.8445 42.215C15.9099 42.271 15.9425 42.3503 15.9425 42.453V46.317H20.7585V42.453C20.7585 42.3503 20.7865 42.271 20.8425 42.215C20.9079 42.1497 20.9872 42.117 21.0805 42.117H21.7945C21.8972 42.117 21.9765 42.1497 22.0325 42.215C22.0979 42.271 22.1305 42.3503 22.1305 42.453V51.595C22.1305 51.6883 22.0979 51.7677 22.0325 51.833C21.9765 51.889 21.8972 51.917 21.7945 51.917H21.0805C20.9872 51.917 20.9079 51.889 20.8425 51.833C20.7865 51.7677 20.7585 51.6883 20.7585 51.595V47.577H15.9425V51.595C15.9425 51.6883 15.9099 51.7677 15.8445 51.833C15.7885 51.889 15.7092 51.917 15.6065 51.917H14.8925ZM27.351 52.057C26.6417 52.057 26.049 51.9217 25.573 51.651C25.097 51.3803 24.733 51.007 24.481 50.531C24.229 50.0457 24.089 49.495 24.061 48.879C24.0517 48.7203 24.047 48.5197 24.047 48.277C24.047 48.025 24.0517 47.8243 24.061 47.675C24.089 47.0497 24.229 46.499 24.481 46.023C24.7423 45.547 25.111 45.1737 25.587 44.903C26.063 44.6323 26.651 44.497 27.351 44.497C28.051 44.497 28.639 44.6323 29.115 44.903C29.591 45.1737 29.955 45.547 30.207 46.023C30.4683 46.499 30.613 47.0497 30.641 47.675C30.6503 47.8243 30.655 48.025 30.655 48.277C30.655 48.5197 30.6503 48.7203 30.641 48.879C30.613 49.495 30.473 50.0457 30.221 50.531C29.969 51.007 29.605 51.3803 29.129 51.651C28.653 51.9217 28.0603 52.057 27.351 52.057ZM27.351 50.979C27.9297 50.979 28.3917 50.797 28.737 50.433C29.0823 50.0597 29.269 49.5183 29.297 48.809C29.3063 48.669 29.311 48.4917 29.311 48.277C29.311 48.0623 29.3063 47.885 29.297 47.745C29.269 47.0357 29.0823 46.499 28.737 46.135C28.3917 45.7617 27.9297 45.575 27.351 45.575C26.7723 45.575 26.3057 45.7617 25.951 46.135C25.6057 46.499 25.4237 47.0357 25.405 47.745C25.3957 47.885 25.391 48.0623 25.391 48.277C25.391 48.4917 25.3957 48.669 25.405 48.809C25.4237 49.5183 25.6057 50.0597 25.951 50.433C26.3057 50.797 26.7723 50.979 27.351 50.979ZM32.7301 51.917C32.6367 51.917 32.5574 51.889 32.4921 51.833C32.4361 51.7677 32.4081 51.6883 32.4081 51.595V44.959C32.4081 44.8657 32.4361 44.791 32.4921 44.735C32.5574 44.6697 32.6367 44.637 32.7301 44.637H33.3601C33.4534 44.637 33.5281 44.6697 33.5841 44.735C33.6494 44.791 33.6821 44.8657 33.6821 44.959V45.449C33.8967 45.1597 34.1674 44.931 34.4941 44.763C34.8207 44.5857 35.2127 44.497 35.6701 44.497C36.7247 44.4877 37.4714 44.917 37.9101 45.785C38.1247 45.393 38.4374 45.0803 38.8481 44.847C39.2587 44.6137 39.7254 44.497 40.2481 44.497C40.7334 44.497 41.1721 44.609 41.5641 44.833C41.9654 45.057 42.2781 45.3977 42.5021 45.855C42.7354 46.303 42.8521 46.8677 42.8521 47.549V51.595C42.8521 51.6883 42.8194 51.7677 42.7541 51.833C42.6981 51.889 42.6234 51.917 42.5301 51.917H41.8721C41.7787 51.917 41.6994 51.889 41.6341 51.833C41.5781 51.7677 41.5501 51.6883 41.5501 51.595V47.675C41.5501 47.1523 41.4754 46.7417 41.3261 46.443C41.1767 46.1443 40.9761 45.9343 40.7241 45.813C40.4721 45.6917 40.1967 45.631 39.8981 45.631C39.6554 45.631 39.4081 45.6917 39.1561 45.813C38.9041 45.9343 38.6941 46.1443 38.5261 46.443C38.3674 46.7417 38.2881 47.1523 38.2881 47.675V51.595C38.2881 51.6883 38.2554 51.7677 38.1901 51.833C38.1341 51.889 38.0594 51.917 37.9661 51.917H37.3081C37.2147 51.917 37.1354 51.889 37.0701 51.833C37.0141 51.7677 36.9861 51.6883 36.9861 51.595V47.675C36.9861 47.1523 36.9067 46.7417 36.7481 46.443C36.5894 46.1443 36.3841 45.9343 36.1321 45.813C35.8801 45.6917 35.6141 45.631 35.3341 45.631C35.0914 45.631 34.8441 45.6917 34.5921 45.813C34.3401 45.9343 34.1301 46.1443 33.9621 46.443C33.8034 46.7417 33.7241 47.1477 33.7241 47.661V51.595C33.7241 51.6883 33.6914 51.7677 33.6261 51.833C33.5701 51.889 33.4954 51.917 33.4021 51.917H32.7301ZM47.7475 52.057C46.7861 52.057 46.0208 51.763 45.4515 51.175C44.8821 50.5777 44.5695 49.7657 44.5135 48.739C44.5041 48.6177 44.4995 48.4637 44.4995 48.277C44.4995 48.081 44.5041 47.9223 44.5135 47.801C44.5508 47.1383 44.7048 46.5597 44.9755 46.065C45.2461 45.561 45.6148 45.1737 46.0815 44.903C46.5575 44.6323 47.1128 44.497 47.7475 44.497C48.4568 44.497 49.0495 44.6463 49.5255 44.945C50.0108 45.2437 50.3795 45.6683 50.6315 46.219C50.8835 46.7697 51.0095 47.4137 51.0095 48.151V48.389C51.0095 48.4917 50.9768 48.571 50.9115 48.627C50.8555 48.683 50.7808 48.711 50.6875 48.711H45.8435C45.8435 48.7203 45.8435 48.739 45.8435 48.767C45.8435 48.795 45.8435 48.8183 45.8435 48.837C45.8621 49.2197 45.9461 49.579 46.0955 49.915C46.2448 50.2417 46.4595 50.5077 46.7395 50.713C47.0195 50.9183 47.3555 51.021 47.7475 51.021C48.0835 51.021 48.3635 50.9697 48.5875 50.867C48.8115 50.7643 48.9935 50.6523 49.1335 50.531C49.2735 50.4003 49.3668 50.3023 49.4135 50.237C49.4975 50.1157 49.5628 50.0457 49.6095 50.027C49.6561 49.999 49.7308 49.985 49.8335 49.985H50.5055C50.5988 49.985 50.6735 50.013 50.7295 50.069C50.7948 50.1157 50.8228 50.1857 50.8135 50.279C50.8041 50.419 50.7295 50.5917 50.5895 50.797C50.4495 50.993 50.2488 51.189 49.9875 51.385C49.7261 51.581 49.4088 51.7443 49.0355 51.875C48.6621 51.9963 48.2328 52.057 47.7475 52.057ZM45.8435 47.745H49.6795V47.703C49.6795 47.283 49.6001 46.9097 49.4415 46.583C49.2921 46.2563 49.0728 45.9997 48.7835 45.813C48.4941 45.617 48.1488 45.519 47.7475 45.519C47.3461 45.519 47.0008 45.617 46.7115 45.813C46.4315 45.9997 46.2168 46.2563 46.0675 46.583C45.9181 46.9097 45.8435 47.283 45.8435 47.703V47.745Z" fill="#12AA9E"/>
</svg>
