<svg width="40" height="40" viewBox="0 0 40 40" fill="none" xmlns="http://www.w3.org/2000/svg">
<path d="M26.8612 25C27.6072 25.4561 28 25.9734 28 26.5C28 27.0266 27.6072 27.5439 26.8612 28C26.1152 28.4561 25.0422 28.8348 23.75 29.0981C22.4578 29.3614 20.9921 29.5 19.5 29.5C18.0079 29.5 16.5422 29.3614 15.25 29.0981C13.9578 28.8348 12.8848 28.4561 12.1388 28C11.3928 27.5439 11 27.0266 11 26.5C11 25.9734 11.3928 25.4561 12.1388 25" stroke="white" stroke-linecap="round"/>
<path d="M27 18C27 23.018 21.5117 26.4027 19.9249 27.2764C19.6568 27.424 19.3432 27.424 19.0751 27.2764C17.4883 26.4027 12 23.018 12 18C12 13.5 15.634 10.5 19.5 10.5C23.5 10.5 27 13.5 27 18Z" stroke="white"/>
<circle cx="19.5" cy="18" r="3.5" stroke="white"/>
<circle cx="20" cy="20" r="19.5" stroke="white"/>
</svg>
