<svg width="61" height="55" viewBox="0 0 61 55" fill="none" xmlns="http://www.w3.org/2000/svg">
<path d="M38.0044 22.821C36.4247 22.0096 37.0334 22.6303 35.0941 21.8002C33.155 20.9714 32.6956 20.7004 32.6956 20.7004L32.6784 18.7992C32.6784 18.7992 33.4047 18.23 33.6312 16.4321C34.0847 16.5676 34.2381 15.8833 34.2628 15.4461C34.2897 15.0238 34.5309 13.7075 33.9762 13.825C34.0897 12.9461 34.1787 12.1515 34.1387 11.7308C34 10.2545 33.0112 8.71269 30.5153 8.6001C28.3934 8.71269 27.0159 10.2555 26.8769 11.7318C26.8369 12.1525 26.9184 12.9465 27.0319 13.8269C26.4775 13.7079 26.7162 15.0267 26.7406 15.4487C26.7675 15.8859 26.9175 16.5721 27.3719 16.4366C27.5975 18.2349 28.3237 18.8082 28.3237 18.8082L28.3056 20.7197C28.3056 20.7197 27.8462 21.0091 25.9072 21.8379C23.9681 22.6684 24.5762 22.0099 22.9966 22.821C20.5 24.1034 20.5 27.63 20.5 27.63C20.5 28.1668 20.9197 28.6001 21.4375 28.6001H39.5625C40.0803 28.6001 40.5 28.1668 40.5 27.6322C40.5003 27.63 40.5003 24.1027 38.0044 22.821Z" fill="#BEBAB3"/>
<path d="M11.5185 51.6001C11.4158 51.6001 11.3365 51.5721 11.2805 51.5161C11.2245 51.4508 11.1965 51.3714 11.1965 51.2781V42.1361C11.1965 42.0334 11.2245 41.9541 11.2805 41.8981C11.3365 41.8328 11.4158 41.8001 11.5185 41.8001H15.0745C15.7652 41.8001 16.3625 41.9121 16.8665 42.1361C17.3798 42.3601 17.7765 42.6961 18.0565 43.1441C18.3365 43.5828 18.4765 44.1334 18.4765 44.7961C18.4765 45.4588 18.3365 46.0094 18.0565 46.4481C17.7765 46.8868 17.3798 47.2181 16.8665 47.4421C16.3625 47.6661 15.7652 47.7781 15.0745 47.7781H12.5965V51.2781C12.5965 51.3714 12.5638 51.4508 12.4985 51.5161C12.4425 51.5721 12.3632 51.6001 12.2605 51.6001H11.5185ZM12.5825 46.6021H15.0045C15.6952 46.6021 16.2132 46.4481 16.5585 46.1401C16.9038 45.8321 17.0765 45.3841 17.0765 44.7961C17.0765 44.2174 16.9085 43.7694 16.5725 43.4521C16.2365 43.1348 15.7138 42.9761 15.0045 42.9761H12.5825V46.6021ZM20.3189 51.6001C20.2256 51.6001 20.1463 51.5721 20.0809 51.5161C20.0249 51.4508 19.9969 51.3714 19.9969 51.2781V44.6561C19.9969 44.5628 20.0249 44.4834 20.0809 44.4181C20.1463 44.3528 20.2256 44.3201 20.3189 44.3201H20.9629C21.0563 44.3201 21.1356 44.3528 21.2009 44.4181C21.2663 44.4834 21.2989 44.5628 21.2989 44.6561V45.2721C21.4856 44.9548 21.7423 44.7168 22.0689 44.5581C22.3956 44.3994 22.7876 44.3201 23.2449 44.3201H23.8049C23.8983 44.3201 23.9729 44.3528 24.0289 44.4181C24.0849 44.4741 24.1129 44.5488 24.1129 44.6421V45.2161C24.1129 45.3094 24.0849 45.3841 24.0289 45.4401C23.9729 45.4961 23.8983 45.5241 23.8049 45.5241H22.9649C22.4609 45.5241 22.0643 45.6734 21.7749 45.9721C21.4856 46.2614 21.3409 46.6581 21.3409 47.1621V51.2781C21.3409 51.3714 21.3083 51.4508 21.2429 51.5161C21.1776 51.5721 21.0983 51.6001 21.0049 51.6001H20.3189ZM28.1606 51.7401C27.4512 51.7401 26.8586 51.6048 26.3826 51.3341C25.9066 51.0634 25.5426 50.6901 25.2906 50.2141C25.0386 49.7288 24.8986 49.1781 24.8706 48.5621C24.8612 48.4034 24.8566 48.2028 24.8566 47.9601C24.8566 47.7081 24.8612 47.5074 24.8706 47.3581C24.8986 46.7328 25.0386 46.1821 25.2906 45.7061C25.5519 45.2301 25.9206 44.8568 26.3966 44.5861C26.8726 44.3154 27.4606 44.1801 28.1606 44.1801C28.8606 44.1801 29.4486 44.3154 29.9246 44.5861C30.4006 44.8568 30.7646 45.2301 31.0166 45.7061C31.2779 46.1821 31.4226 46.7328 31.4506 47.3581C31.4599 47.5074 31.4646 47.7081 31.4646 47.9601C31.4646 48.2028 31.4599 48.4034 31.4506 48.5621C31.4226 49.1781 31.2826 49.7288 31.0306 50.2141C30.7786 50.6901 30.4146 51.0634 29.9386 51.3341C29.4626 51.6048 28.8699 51.7401 28.1606 51.7401ZM28.1606 50.6621C28.7392 50.6621 29.2012 50.4801 29.5466 50.1161C29.8919 49.7428 30.0786 49.2014 30.1066 48.4921C30.1159 48.3521 30.1206 48.1748 30.1206 47.9601C30.1206 47.7454 30.1159 47.5681 30.1066 47.4281C30.0786 46.7188 29.8919 46.1821 29.5466 45.8181C29.2012 45.4448 28.7392 45.2581 28.1606 45.2581C27.5819 45.2581 27.1152 45.4448 26.7606 45.8181C26.4152 46.1821 26.2332 46.7188 26.2146 47.4281C26.2052 47.5681 26.2006 47.7454 26.2006 47.9601C26.2006 48.1748 26.2052 48.3521 26.2146 48.4921C26.2332 49.2014 26.4152 49.7428 26.7606 50.1161C27.1152 50.4801 27.5819 50.6621 28.1606 50.6621ZM34.1856 51.6001C34.0923 51.6001 34.0129 51.5721 33.9476 51.5161C33.8916 51.4508 33.8636 51.3714 33.8636 51.2781V45.4401H32.6736C32.5803 45.4401 32.5009 45.4121 32.4356 45.3561C32.3796 45.2908 32.3516 45.2114 32.3516 45.1181V44.6421C32.3516 44.5488 32.3796 44.4741 32.4356 44.4181C32.5009 44.3528 32.5803 44.3201 32.6736 44.3201H33.8636V43.6201C33.8636 43.1441 33.9429 42.7288 34.1016 42.3741C34.2603 42.0101 34.5123 41.7301 34.8576 41.5341C35.2123 41.3381 35.6836 41.2401 36.2716 41.2401H38.4276C38.5209 41.2401 38.5956 41.2728 38.6516 41.3381C38.7169 41.3941 38.7496 41.4688 38.7496 41.5621V42.0381C38.7496 42.1314 38.7169 42.2108 38.6516 42.2761C38.5956 42.3321 38.5209 42.3601 38.4276 42.3601H36.2996C35.8609 42.3601 35.5623 42.4768 35.4036 42.7101C35.2449 42.9341 35.1656 43.2608 35.1656 43.6901V44.3201H38.4276C38.5209 44.3201 38.5956 44.3528 38.6516 44.4181C38.7169 44.4741 38.7496 44.5488 38.7496 44.6421V51.2781C38.7496 51.3714 38.7169 51.4508 38.6516 51.5161C38.5956 51.5721 38.5209 51.6001 38.4276 51.6001H37.7836C37.6809 51.6001 37.6016 51.5721 37.5456 51.5161C37.4896 51.4508 37.4616 51.3714 37.4616 51.2781V45.4401H35.1656V51.2781C35.1656 51.3714 35.1329 51.4508 35.0676 51.5161C35.0116 51.5721 34.9369 51.6001 34.8436 51.6001H34.1856ZM41.1552 51.6001C41.0619 51.6001 40.9825 51.5721 40.9172 51.5161C40.8612 51.4508 40.8332 51.3714 40.8332 51.2781V41.9821C40.8332 41.8888 40.8612 41.8141 40.9172 41.7581C40.9825 41.6928 41.0619 41.6601 41.1552 41.6601H41.8132C41.9159 41.6601 41.9952 41.6928 42.0512 41.7581C42.1072 41.8141 42.1352 41.8888 42.1352 41.9821V51.2781C42.1352 51.3714 42.1072 51.4508 42.0512 51.5161C41.9952 51.5721 41.9159 51.6001 41.8132 51.6001H41.1552ZM47.1215 51.7401C46.1602 51.7401 45.3948 51.4461 44.8255 50.8581C44.2562 50.2608 43.9435 49.4488 43.8875 48.4221C43.8782 48.3008 43.8735 48.1468 43.8735 47.9601C43.8735 47.7641 43.8782 47.6054 43.8875 47.4841C43.9248 46.8214 44.0788 46.2428 44.3495 45.7481C44.6202 45.2441 44.9888 44.8568 45.4555 44.5861C45.9315 44.3154 46.4868 44.1801 47.1215 44.1801C47.8308 44.1801 48.4235 44.3294 48.8995 44.6281C49.3848 44.9268 49.7535 45.3514 50.0055 45.9021C50.2575 46.4528 50.3835 47.0968 50.3835 47.8341V48.0721C50.3835 48.1748 50.3508 48.2541 50.2855 48.3101C50.2295 48.3661 50.1548 48.3941 50.0615 48.3941H45.2175C45.2175 48.4034 45.2175 48.4221 45.2175 48.4501C45.2175 48.4781 45.2175 48.5014 45.2175 48.5201C45.2362 48.9028 45.3202 49.2621 45.4695 49.5981C45.6188 49.9248 45.8335 50.1908 46.1135 50.3961C46.3935 50.6014 46.7295 50.7041 47.1215 50.7041C47.4575 50.7041 47.7375 50.6528 47.9615 50.5501C48.1855 50.4474 48.3675 50.3354 48.5075 50.2141C48.6475 50.0834 48.7408 49.9854 48.7875 49.9201C48.8715 49.7988 48.9368 49.7288 48.9835 49.7101C49.0302 49.6821 49.1048 49.6681 49.2075 49.6681H49.8795C49.9728 49.6681 50.0475 49.6961 50.1035 49.7521C50.1688 49.7988 50.1968 49.8688 50.1875 49.9621C50.1782 50.1021 50.1035 50.2748 49.9635 50.4801C49.8235 50.6761 49.6228 50.8721 49.3615 51.0681C49.1002 51.2641 48.7828 51.4274 48.4095 51.5581C48.0362 51.6794 47.6068 51.7401 47.1215 51.7401ZM45.2175 47.4281H49.0535V47.3861C49.0535 46.9661 48.9742 46.5928 48.8155 46.2661C48.6662 45.9394 48.4468 45.6828 48.1575 45.4961C47.8682 45.3001 47.5228 45.2021 47.1215 45.2021C46.7202 45.2021 46.3748 45.3001 46.0855 45.4961C45.8055 45.6828 45.5908 45.9394 45.4415 46.2661C45.2922 46.5928 45.2175 46.9661 45.2175 47.3861V47.4281Z" fill="#BEBAB3"/>
</svg>
